<svg viewBox="0 0 278 62" xmlns="http://www.w3.org/2000/svg" fill-rule="evenodd" clip-rule="evenodd"
     stroke-linejoin="round" stroke-miterlimit="1.414">
    <path fill="#0d1c42" fill-rule="nonzero"
          d="M73.763 23.825h4.865V48.24h-4.865zM83.962 30.664a12.76 12.76 0 0 1 2.654-4.006 12.41 12.41 0 0 1 3.952-2.709 11.931 11.931 0 0 1 4.809-.987c1.731 0 3.344.33 4.836.987a12.85 12.85 0 0 1 3.953 2.709 12.565 12.565 0 0 1 2.681 4.006c.644 1.523.968 3.169.968 4.937v12.694h-4.92V35.601a7.602 7.602 0 0 0-.58-2.962 7.691 7.691 0 0 0-1.604-2.426 7.421 7.421 0 0 0-2.405-1.637 7.354 7.354 0 0 0-2.929-.592 7.156 7.156 0 0 0-2.902.592 7.498 7.498 0 0 0-2.377 1.637 7.658 7.658 0 0 0-1.604 2.426 7.584 7.584 0 0 0-.58 2.962v12.694h-4.92V35.601c0-1.768.323-3.414.968-4.937M127.107 43.218v5.021h-2.433a11.9 11.9 0 0 1-4.809-.987 12.47 12.47 0 0 1-3.979-2.736 12.778 12.778 0 0 1-2.681-4.062 12.577 12.577 0 0 1-.968-4.909V12.75h4.92v15.234h9.95v5.021h-9.95v2.54a7.8 7.8 0 0 0 .58 2.99 7.577 7.577 0 0 0 1.603 2.454 7.421 7.421 0 0 0 2.405 1.637 7.35 7.35 0 0 0 2.929.592h2.433zM138.77 30.241c-1.475 1.506-2.21 3.31-2.21 5.417a7.45 7.45 0 0 0 .773 3.329c.442-.452 1.114-1.139 2.018-2.059.902-.923 1.86-1.9 2.875-2.935a407.289 407.289 0 0 1 2.929-2.962c.939-.94 1.666-1.673 2.183-2.2a7.283 7.283 0 0 0-4.45-.734c-1.567.226-2.94.94-4.118 2.144m12.327 9.084l3.483 3.555-1.713 1.75a12.319 12.319 0 0 1-4.037 2.763c-1.511.64-3.095.96-4.753.96s-3.243-.32-4.755-.96a12.321 12.321 0 0 1-4.035-2.763c-1.215-1.243-2.12-2.643-2.707-4.204a13.369 13.369 0 0 1-.886-4.768c0-1.618.295-3.198.886-4.74.587-1.541 1.492-2.933 2.707-4.176 1.217-1.241 2.589-2.171 4.119-2.793a12.331 12.331 0 0 1 4.671-.931c1.585 0 3.141.311 4.672.931 1.528.622 2.902 1.552 4.118 2.793l1.713 1.75-13.765 14.05c1.4.714 2.884.949 4.451.705 1.566-.244 2.938-.967 4.118-2.172l1.713-1.75zM173.928 22.906v5.021h-2.488a7.2 7.2 0 0 0-2.902.592 7.525 7.525 0 0 0-2.377 1.637 7.689 7.689 0 0 0-1.603 2.426 7.6 7.6 0 0 0-.58 2.963V48.24h-4.975V35.545c0-1.767.322-3.413.967-4.938a12.547 12.547 0 0 1 2.682-4.005 12.767 12.767 0 0 1 3.98-2.71 11.922 11.922 0 0 1 4.808-.986h2.488zM182.113 24.834v21.65h6.813c1.615 0 3.103-.297 4.461-.897a10.304 10.304 0 0 0 3.371-2.365c2.083-2.198 3.125-4.636 3.125-7.312 0-1.65-.292-3.114-.878-4.392-.584-1.279-1.258-2.33-2.019-3.155a10.303 10.303 0 0 0-2.652-2.06c-1.801-.979-3.77-1.469-5.9-1.469h-6.321zm19.598 10.43c0 1.745-.271 3.347-.808 4.803-.54 1.457-1.247 2.683-2.125 3.675a13.048 13.048 0 0 1-3.039 2.527c-2.131 1.314-4.414 1.971-6.848 1.971h-8.57V23.078h7.413c4.071 0 7.421 1.163 10.043 3.494 2.62 2.329 3.934 5.227 3.934 8.692M250.277 40.785a10.375 10.375 0 0 1-.526 2.078c-.235.622-.621 1.314-1.16 2.081a8.076 8.076 0 0 1-1.878 1.917c-.715.513-1.664.945-2.844 1.291a13.434 13.434 0 0 1-3.777.519c-1.334 0-2.498-.167-3.494-.502-.996-.335-1.803-.754-2.425-1.254a8.413 8.413 0 0 1-1.666-1.847c-.493-.729-.93-1.589-1.317-2.581-.387-.99-.638-2.301-.755-3.924V23.077h1.72v15.377c0 2.033.539 3.837 1.616 5.412 1.358 2.009 3.455 3.012 6.288 3.012 2.317 0 4.2-.49 5.652-1.469a6.077 6.077 0 0 0 1.528-1.543c.433-.62.749-1.181.949-1.684.199-.501.362-1.141.49-1.918.13-.776.17-1.475.124-2.097v-15.09h1.721v15.305c0 .719-.082 1.519-.246 2.403M274.156 23.077l-15.839 16.596V23.077h-1.721V48.24h1.721v-6.273l6.251-6.453 10.114 12.726H277l-11.202-13.979 10.852-11.184h-2.494z"/>
    <clipPath id="a">
        <path d="M0 .001h276.998v61.42H0z"/>
    </clipPath>
    <g clip-path="url(#a)" fill="#0d1c42" fill-rule="nonzero">
        <path d="M224.064 40.3c-.324-.718-.762-1.293-1.315-1.72l-.019-.017c-1.077-.862-2.331-1.386-3.759-1.578 2.455-.15 3.981-1.554 4.285-1.864 1.312-1.267 1.966-2.986 1.966-5.163 0-1.051-.216-1.993-.648-2.831-.435-.836-.978-1.499-1.634-1.989a8.834 8.834 0 0 0-2.247-1.2c-1.475-.575-2.939-.86-4.39-.86h-10.08V48.24h1.791V37.917h5.725c1.919 0 3.097.044 3.75.122 4.661.558 5.229 3.987 5.26 4.799v5.402h1.791s.009-5.359 0-5.556c-.046-.98-.202-1.776-.476-2.384m-8.639-4.14h-7.411V24.834h8.746c1.849 0 3.424.459 4.722 1.379 1.301.921 1.95 2.17 1.95 3.745 0 2.009-.638 3.539-1.913 4.59-1.277 1.051-3.309 1.589-6.094 1.612M51.543 52.364s-.334.276-.958.8a32.05 32.05 0 0 1-2.829 2.024 30.55 30.55 0 0 1-4.781 2.434 28.04 28.04 0 0 1-6.661 1.769c-.156.025-.313.049-.468.07l-.479.049c-.319.029-.642.062-.968.094-.655.024-1.317.08-1.996.064-.676.016-1.362-.03-2.059-.062-.695-.067-1.4-.116-2.107-.236-.71-.089-1.42-.244-2.14-.386-.355-.089-.713-.178-1.074-.266-.359-.086-.714-.209-1.075-.312a29.037 29.037 0 0 1-4.253-1.69c-2.774-1.399-5.424-3.273-7.702-5.603a15.785 15.785 0 0 1-.842-.891l-.41-.453-.095-.105-.01-.011-.024-.032-.052-.062-.205-.25c-.264-.333-.571-.671-.808-.993l-.72-.961a29.769 29.769 0 0 1-2.51-4.265 29.29 29.29 0 0 1-1.785-4.617 31.401 31.401 0 0 1-.973-4.824c-.2-1.618-.245-3.24-.205-4.84.055-1.602.247-3.175.544-4.702.284-1.531.668-3.02 1.178-4.432.113-.36.263-.701.395-1.047l.202-.518c.071-.169.15-.336.226-.502.156-.333.287-.674.45-.998.16-.326.321-.647.482-.967.678-1.261 1.399-2.459 2.198-3.549.789-1.092 1.61-2.118 2.477-3.025.213-.223.437-.47.631-.665.229-.223.455-.446.676-.664.432-.402.857-.797 1.302-1.168a32.623 32.623 0 0 1 2.598-1.975 30.09 30.09 0 0 1 2.462-1.498 29.195 29.195 0 0 1 2.196-1.1A31.46 31.46 0 0 1 24.606.764c.378-.129.678-.207.875-.268.2-.059.303-.091.303-.091h.005a.21.21 0 0 0 .145-.226.204.204 0 0 0-.227-.177l-.318.046c-.205.031-.518.064-.92.136-.808.126-1.981.387-3.453.829-.734.224-1.541.503-2.404.854-.862.355-1.775.79-2.733 1.297a29.16 29.16 0 0 0-2.937 1.828c-.499.349-1.004.738-1.523 1.143l-.725.604c-.272.237-.497.454-.752.685-1.003.907-1.97 1.94-2.915 3.065-.936 1.133-1.8 2.392-2.621 3.731a31.41 31.41 0 0 0-3.658 9.205 32.772 32.772 0 0 0-.708 5.231c-.097 1.789-.013 3.603.206 5.412a31.65 31.65 0 0 0 1.13 5.382 32.402 32.402 0 0 0 2.067 5.127 32.782 32.782 0 0 0 2.909 4.671l.868 1.097c.144.191.286.341.428.508l.429.483.216.241.134.151.118.121.476.48c.313.325.629.642.965.94 2.609 2.467 5.634 4.343 8.715 5.688a31.016 31.016 0 0 0 4.684 1.57c.392.088.779.199 1.171.268.389.075.778.148 1.162.22.778.113 1.543.231 2.306.285.757.084 1.513.091 2.248.121.742-.008 1.468-.003 2.184-.059.715-.024 1.412-.121 2.096-.191.342-.051.678-.102 1.012-.156.166-.024.332-.05.497-.077.163-.032.326-.068.489-.1a29.36 29.36 0 0 0 6.829-2.238 28.649 28.649 0 0 0 4.768-2.808 31.815 31.815 0 0 0 2.757-2.258l.905-.861a.21.21 0 0 0 .018-.279.198.198 0 0 0-.284-.03"/>
        <path d="M56.385 32.805c-.455-.048-.915-.072-1.37-.139a30.876 30.876 0 0 1-2.724-.478l-.676-.153c-.227-.054-.45-.118-.673-.177l-.674-.18-.668-.207-.665-.206-.66-.231c-.221-.078-.442-.153-.66-.233l-.655-.256a25.488 25.488 0 0 1-1.297-.537c-.433-.18-.857-.378-1.282-.582a27.885 27.885 0 0 1-1.263-.623 28.512 28.512 0 0 1-1.247-.665 27.827 27.827 0 0 1-1.228-.707l-.608-.362-.596-.378-.6-.382-.586-.4-.59-.4-.575-.416a27.61 27.61 0 0 1-1.141-.848c-.376-.29-.755-.577-1.118-.883-.368-.303-.739-.601-1.094-.918-.358-.314-.724-.62-1.068-.948a48.836 48.836 0 0 1-2.054-1.991 50.604 50.604 0 0 1-1.938-2.118c-.305-.368-.621-.728-.921-1.101-.294-.378-.597-.752-.886-1.135l-.852-1.162-.813-1.192-.773-1.219-.728-1.251-.684-1.275a77.686 77.686 0 0 0-.668-1.318l.865 1.168.934 1.081a52.327 52.327 0 0 0 1.957 2.089 44.938 44.938 0 0 0 4.276 3.809 39.767 39.767 0 0 0 2.322 1.683 41.817 41.817 0 0 0 2.437 1.509c.416.241.842.456 1.263.687.426.22.86.424 1.289.636l1.312.585 1.336.532c.452.158.902.327 1.356.478.459.142.913.297 1.374.424.922.263 1.854.496 2.795.687.939.193 1.888.354 2.84.474.476.06.952.125 1.431.159.478.043.957.091 1.436.11.478.024.959.057 1.438.059.481.008.96.024 1.441.011a27.079 27.079 0 0 0 1.847-.053l.297 8.954a7.45 7.45 0 0 1-.211-.011M22.342 15.718c.05.608.142 1.237.216 1.892.079.654.205 1.326.31 2.018.119.69.271 1.396.413 2.118.176.717.332 1.455.537 2.193.205.738.407 1.492.657 2.241.229.757.502 1.509.776 2.269.06.161.123.325.186.486-.06.005-.118.011-.176.013l-.273.011c-.04 0-.069 0-.077.002l-.878.032c-.41.025-.826.003-1.244 0-.415-.013-.833-.005-1.251-.034-.416-.03-.832-.062-1.247-.091-.208-.019-.415-.027-.621-.051l-.612-.081-1.208-.161c-.231-.032-.46-.078-.689-.124a42.604 42.604 0 0 1-.102-2.251c0-.366 0-.73.003-1.093.005-.363.033-.722.047-1.082.021-.719.118-1.423.184-2.12.037-.347.1-.688.147-1.029.058-.338.092-.679.169-1.009.065-.33.133-.658.199-.979.035-.162.069-.323.1-.484l.124-.47c.165-.62.305-1.234.502-1.809.187-.574.342-1.143.552-1.667.203-.526.374-1.039.576-1.513.203-.473.397-.921.577-1.343.381-.838.746-1.548 1.036-2.145.444-.81.907-1.64.909-1.645l-.073 2.027c0 .354 0 .746.003 1.173.002.426-.009.891.021 1.385l.065 1.575.142 1.746m4.813 17.235a54.991 54.991 0 0 0 2.298 4.319 59.51 59.51 0 0 0 2.546 3.994c.047.067.095.135.139.202-.975.244-1.972.442-2.974.595-1.147.186-2.303.28-3.443.336a30.57 30.57 0 0 1-3.336-.024 23.788 23.788 0 0 1-1.479-.121 62.259 62.259 0 0 1-1.32-3.253 45.39 45.39 0 0 1-1.294-4.072c-.389-1.404-.671-2.859-.888-4.322-.017-.102-.027-.204-.04-.303.1.008.2.019.302.024.413.016 3.672.242 7.992-.143v.003c.087-.005.177-.013.266-.019.407 1.015.75 1.791 1.231 2.784m7.463 11.875a89.332 89.332 0 0 0 2.498 3.058c.792.931 1.537 1.763 2.194 2.499l1.717 1.884c.179.193.339.368.486.529a24.25 24.25 0 0 1-6.606 1.329c-.383.008-.773.013-1.165.018l-.586.011h-.089l-.04-.003-.152-.008-.305-.013c-.411-.019-.826-.033-1.207-.08-.393-.043-.781-.073-1.184-.143a23.352 23.352 0 0 1-4.002-.953 1.726 1.726 0 0 0-.095-.233s-.085-.169-.242-.489l-.7-1.393c-.607-1.195-1.491-2.861-2.49-4.869a75.901 75.901 0 0 1-.828-1.713c.17.003.341.005.515.003a33.48 33.48 0 0 0 3.508-.204 33.232 33.232 0 0 0 3.572-.588c1.177-.26 2.34-.574 3.463-.956a70.06 70.06 0 0 0 1.738 2.314m-17.993 2.347c-1.218-1.217-2.58-2.859-3.542-4.311 3.316.99 4.718 1.14 5.648 1.229.416 1.122.832 2.18 1.234 3.146.56 1.361 1.075 2.558 1.507 3.562-1.673-1.001-3.435-2.212-4.847-3.626m-4.921-7.358c-.223-.5-.436-1.004-.628-1.517a24.3 24.3 0 0 1-1.325-5.175c-.048-.443-.114-.883-.148-1.326-.024-.443-.073-.884-.076-1.329l-.016-.663-.005-.167-.002-.083v-.013l.002-.038.008-.348c.002-.083.005-.17.005-.253.216.065.449.132.699.204.521.132 1.126.263 1.773.413.326.067.663.161 1.013.215l1.083.177c.371.059.752.119 1.139.183.118.011.239.021.358.035.012.225.02.448.039.674.123 1.551.313 3.105.616 4.608a46.983 46.983 0 0 0 1.059 4.37c.203.688.41 1.359.626 2.014a39.18 39.18 0 0 1-1.362-.306 31.016 31.016 0 0 1-2.249-.653 29.607 29.607 0 0 1-1.685-.622c-.379-.161-.679-.287-.924-.4M9.78 25.861l.113-.644c.042-.212.071-.43.118-.641l.142-.634c.084-.427.208-.84.318-1.256a23.854 23.854 0 0 1 1.881-4.722c1.53-2.977 3.642-5.503 5.974-7.484 1.168-.993 3.75-2.614 3.75-2.614-.189.293-.588.829-1.004 1.473-.332.572-.75 1.265-1.191 2.078l-.679 1.313c-.236.464-.447.971-.689 1.49-.25.517-.449 1.082-.681 1.656-.242.569-.428 1.183-.644 1.809l-.158.472-.137.486c-.091.328-.184.661-.279.994-.1.335-.16.681-.244 1.027-.074.347-.166.695-.229 1.053-.116.713-.268 1.438-.342 2.182-.042.373-.097.746-.128 1.124-.03.377-.056.758-.085 1.138-.032.653-.05 1.313-.055 1.974-.355-.092-.702-.18-1.039-.269l-1.007-.257c-.324-.083-.621-.199-.915-.288-.584-.193-1.113-.359-1.589-.523-.483-.191-.904-.36-1.252-.497 0 0-.002-.003-.005-.003l.056-.437zm54.077-4.359l-4.014-8.338a74.525 74.525 0 0 0 4.216-1.693l-.581-.894-1.46-2.252c-.489-.749-.97-1.503-1.47-2.247l-1.485-2.233c-.506-.736-1.003-1.482-1.515-2.212L57.04.911l-.586.596c-.287.289-.6.588-.908.875a55.379 55.379 0 0 1-2.892 2.493 41.953 41.953 0 0 1-4.148 2.942c-1.441.886-2.945 1.67-4.528 2.231-1.578.553-3.261.891-4.921.669a.165.165 0 0 0-.184.136.169.169 0 0 0 .129.197 9.356 9.356 0 0 0 2.604.099 14.323 14.323 0 0 0 2.553-.51c1.67-.489 3.259-1.211 4.784-2.035a43.334 43.334 0 0 0 4.402-2.773 55.827 55.827 0 0 0 3.098-2.389c.082-.07.324-.274.384-.327l-.039.034.999 1.571 1.468 2.249c.484.752.988 1.49 1.483 2.236l.915 1.367c-7.874 3.223-14.367 4.442-19.647 4.52l-1.331-.043-1.336-.091-1.333-.143c-.445-.056-.887-.126-1.329-.19-.438-.075-.878-.167-1.317-.247-.437-.102-.873-.199-1.308-.312-.862-.236-1.719-.488-2.555-.81a24.62 24.62 0 0 1-2.457-1.079 25.61 25.61 0 0 1-2.33-1.327c-.757-.474-1.483-.995-2.209-1.508-1.549-1.095-2.098-1.648-2.098-1.648 1.109-.607 2.248-1.136 3.366-1.528a26.635 26.635 0 0 1 3.716-1.014 27.216 27.216 0 0 1 3.471-.4c.258-.019.555-.019.821-.027.263 0 .52-.005.778.003.516.011 1.013.035 1.488.075.955.072 1.831.193 2.615.341 1.572.287 2.777.682 3.597.953.408.145.721.257.926.341.21.08.318.123.318.123h.003a.166.166 0 0 0 .21-.08.173.173 0 0 0-.071-.231s-.105-.057-.305-.161c-.2-.11-.502-.261-.9-.456a23.803 23.803 0 0 0-3.584-1.346 23.82 23.82 0 0 0-5.904-.931 25.469 25.469 0 0 0-3.703.156 25.435 25.435 0 0 0-4.049.826A25.087 25.087 0 0 0 20.99 6a25.982 25.982 0 0 0-4.115 2.607c-2.667 2.045-5.068 4.785-6.887 8.033a26.503 26.503 0 0 0-3.204 11.006c-.045.518-.047.97-.058 1.439l-.01.351v.124l.002.094.005.185.019.741c.002.494.068.988.1 1.482.042.496.121.988.182 1.479.294 1.968.82 3.906 1.54 5.76.258.655.542 1.299.85 1.93.055.116.116.234.174.349a26.737 26.737 0 0 0 1.738 2.972 25.818 25.818 0 0 0 3.808 4.434 25.381 25.381 0 0 0 9.63 5.661 25.308 25.308 0 0 0 5.202 1.088c.426.056.868.072 1.302.099.441.032.849.029 1.257.029l.308.003h.25l.078-.005c.21-.014.418-.024.626-.038.416-.024.828-.051 1.242-.075a25.795 25.795 0 0 0 7.429-1.925 24.102 24.102 0 0 0 3.269-1.675 25.049 25.049 0 0 0 4.471-3.473c1.664-1.624 2.871-3.267 3.77-4.665.429-.717.826-1.342 1.103-1.935.291-.581.552-1.069.707-1.482l.523-1.251a.174.174 0 0 0-.079-.223.168.168 0 0 0-.226.081s-.205.424-.586 1.221c-.177.408-.455.869-.769 1.417-.294.558-.714 1.154-1.167 1.828-.949 1.318-2.193 2.856-3.863 4.354a24.019 24.019 0 0 1-4.439 3.146l-.008-.008-1.602-1.503c-.502-.478-1.115-1.058-1.817-1.724a111.35 111.35 0 0 1-2.298-2.268 83.986 83.986 0 0 1-3.864-4.177c.19-.08.379-.16.563-.241a37.816 37.816 0 0 0 2.906-1.471 37.89 37.89 0 0 0 2.48-1.525c.371-.258.734-.494 1.065-.736.331-.244.642-.475.936-.694.584-.441 1.073-.854 1.483-1.179l1.244-1.082a.097.097 0 0 0 .014-.128.091.091 0 0 0-.127-.02l-.002.003s-.474.363-1.305.994c-.429.297-.936.673-1.538 1.07-.305.196-.629.406-.968.626-.345.217-.716.427-1.094.655-.768.443-1.615.899-2.527 1.337-.913.442-1.896.853-2.922 1.248-.297.107-.602.212-.907.316a57.41 57.41 0 0 1-.812-.998 57.82 57.82 0 0 1-2.717-3.645 53.05 53.05 0 0 1-2.498-3.986c-.4-.69-.768-1.393-1.126-2.102 1.37-.245 2.598-.575 2.877-.649.712-.207 1.388-.392 1.996-.616.615-.195 1.159-.437 1.649-.625.476-.226.747-.3 1.075-.488l.445-.239.318-.196c.171-.11.263-.166.263-.166a.075.075 0 0 0 .026-.098.072.072 0 0 0-.097-.031l-.005.002-.271.137-.327.164c-.133.057-.286.118-.457.193-2.143.934-5.696 1.428-8.016 1.562l-.047-.096c-.153-.32-.302-.639-.45-.956-.315-.714-.631-1.423-.904-2.14-.295-.708-.542-1.425-.792-2.128-.253-.7-.452-1.41-.676-2.094-.186-.695-.386-1.371-.549-2.037-.153-.671-.324-1.318-.445-1.954-.118-.639-.252-1.251-.344-1.844-.093-.596-.179-1.168-.263-1.71a764.54 764.54 0 0 0-.174-1.551c-.063-.487-.087-.945-.121-1.37-.029-.423-.057-.813-.084-1.165-.034-.966-.079-1.718-.09-2.05.043.083.09.177.132.262.137.317.35.774.482 1.072l.628 1.317.676 1.291.718 1.268.765 1.24.804 1.216c.274.399.561.792.842 1.189.287.392.587.773.881 1.16a48.233 48.233 0 0 0 3.856 4.367c.336.351.691.679 1.041 1.017.347.341.71.663 1.07.988.358.33.728.644 1.099.958.369.32.745.623 1.126.924l.571.456.581.438.584.437.597.422.594.418.608.403c.405.271.812.537 1.228.789.415.255.828.51 1.255.749.42.242.843.486 1.274.708.432.229.861.46 1.302.666.437.218.876.43 1.323.626l.671.298c.223.096.452.185.676.276l.681.277.689.252.691.25.7.223c.234.074.466.155.7.222l.71.196c.946.263 1.909.476 2.882.65.484.097.975.148 1.465.223.492.061.986.096 1.481.147l1.288.129-.942-11.559a49.148 49.148 0 0 0 2.199-.222c.476-.065.952-.124 1.425-.197l1.423-.232 1.465-.239-.652-1.356z"/>
    </g>
</svg>
